Coordinates
version=1
nRows=24
nColumns=38
inDegrees=no

Units are S.I. units (second, meters, Newtons, ...)
If the header above contains a line with 'inDegrees', this indicates whether rotational values are in degrees (yes) or radians (no).

endheader
time	pelvis_tilt	pelvis_list	pelvis_rotation	pelvis_tx	pelvis_ty	pelvis_tz	hip_flexion_r	hip_adduction_r	hip_rotation_r	knee_angle_r	ankle_angle_r	subtalar_angle_r	mtp_angle_r	hip_flexion_l	hip_adduction_l	hip_rotation_l	knee_angle_l	ankle_angle_l	subtalar_angle_l	mtp_angle_l	lumbar_extension	lumbar_bending	lumbar_rotation	arm_flex_r	arm_add_r	arm_rot_r	elbow_flex_r	pro_sup_r	wrist_flex_r	wrist_dev_r	arm_flex_l	arm_add_l	arm_rot_l	elbow_flex_l	pro_sup_l	wrist_flex_l	wrist_dev_l
0	-3.05446	1.45537	-1.56569	0.695955	-0.522111	1.04477	-0.057504	-0.0598463	-0.339779	0.45251	-0.110647	0	0	-0.119699	-0.10336	-0.187139	0.123803	-0.444778	0	0	-0.352366	0.0400789	-0.162691	0.156608	-0.435947	1.13624	0.579918	0.625254	0	0	0.158253	-0.394465	1.05615	0.44651	0.723953	0	0
0.01	-3.03882	1.45381	-1.58063	0.697094	-0.522836	1.04499	-0.0593635	-0.0611309	-0.344082	0.449944	-0.111461	0	0	-0.11875	-0.102552	-0.186786	0.126786	-0.444208	0	0	-0.354395	0.0397561	-0.164943	0.158279	-0.434816	1.13021	0.582733	0.620325	0	0	0.1583	-0.394475	1.09465	0.445948	0.660593	0	0
0.02	-3.02831	1.45214	-1.59225	0.698417	-0.523723	1.04526	-0.0605343	-0.0617414	-0.34561	0.448781	-0.112163	0	0	-0.117868	-0.102022	-0.187144	0.130099	-0.442966	0	0	-0.358492	0.0392487	-0.16628	0.161821	-0.433191	1.12457	0.585272	0.617912	0	0	0.153352	-0.393052	1.10201	0.444843	0.642595	0	0
0.03	-3.0192	1.45028	-1.60228	0.699718	-0.524603	1.0455	-0.0621346	-0.0619416	-0.346343	0.44752	-0.112295	0	0	-0.116721	-0.101585	-0.187649	0.1344	-0.440968	0	0	-0.362976	0.0385964	-0.167964	0.165885	-0.431279	1.12	0.587509	0.616563	0	0	0.147598	-0.39183	1.10337	0.443898	0.638106	0	0
0.04	-3.01191	1.44849	-1.61045	0.700954	-0.525422	1.04572	-0.0639852	-0.0619845	-0.346822	0.44601	-0.112182	0	0	-0.115721	-0.101121	-0.187806	0.138391	-0.438739	0	0	-0.366621	0.0381661	-0.170004	0.169954	-0.429706	1.11664	0.589944	0.616531	0	0	0.140953	-0.390487	1.09839	0.443497	0.642383	0	0
0.05	-3.00556	1.4463	-1.61712	0.702079	-0.52619	1.04593	-0.0664597	-0.0621886	-0.348418	0.444632	-0.112259	0	0	-0.114942	-0.100728	-0.18838	0.143008	-0.43572	0	0	-0.370166	0.037872	-0.172176	0.173878	-0.428437	1.11432	0.592626	0.612971	0	0	0.13815	-0.391408	1.1146	0.444906	0.628134	0	0
0.06	-2.99924	1.44403	-1.623	0.703103	-0.526843	1.04612	-0.0698653	-0.0619214	-0.35009	0.441746	-0.112846	0	0	-0.11359	-0.100565	-0.19046	0.149606	-0.427254	0	0	-0.371726	0.0376406	-0.169258	0.169935	-0.427184	1.09552	0.594651	0.622989	0	0	0.159916	-0.400602	1.25024	0.454551	0.489863	0	0
0.07	-2.99598	1.44107	-1.62605	0.704067	-0.527445	1.04632	-0.074318	-0.0610417	-0.350869	0.438352	-0.113253	0	0	-0.113811	-0.100316	-0.192046	0.154616	-0.421889	0	0	-0.37564	0.0377992	-0.170645	0.172018	-0.42557	1.08781	0.596709	0.627633	0	0	0.158371	-0.40205	1.2638	0.458039	0.484897	0	0
0.08	-2.99663	1.43804	-1.62549	0.705015	-0.527948	1.04656	-0.07915	-0.0596588	-0.35049	0.433981	-0.114234	0	0	-0.114888	-0.100271	-0.19302	0.158475	-0.41674	0	0	-0.379155	0.0378278	-0.171805	0.173122	-0.423931	1.07854	0.59897	0.631824	0	0	0.156626	-0.403778	1.27578	0.461852	0.484945	0	0
0.09	-3.00116	1.43433	-1.62111	0.705933	-0.528375	1.04681	-0.0850847	-0.0576272	-0.350215	0.429091	-0.115084	0	0	-0.117564	-0.100613	-0.193499	0.161001	-0.412143	0	0	-0.383304	0.0381834	-0.172812	0.173911	-0.422064	1.06812	0.601002	0.637331	0	0	0.15472	-0.405702	1.28654	0.46576	0.489877	0	0
0.1	-3.00672	1.43025	-1.6157	0.706785	-0.528716	1.04704	-0.0915936	-0.0554066	-0.350149	0.424523	-0.115548	0	0	-0.121137	-0.101069	-0.193914	0.162761	-0.408894	0	0	-0.387623	0.0388153	-0.173667	0.174292	-0.420357	1.05683	0.603208	0.644414	0	0	0.152811	-0.40757	1.29546	0.469917	0.498909	0	0
0.11	-3.0146	1.42635	-1.60953	0.707641	-0.528863	1.04721	-0.0983251	-0.0527848	-0.348302	0.418198	-0.116237	0	0	-0.126055	-0.101628	-0.19624	0.161895	-0.407919	0	0	-0.391245	0.039403	-0.172808	0.173902	-0.418911	1.04464	0.605228	0.65278	0	0	0.150668	-0.408735	1.30208	0.473809	0.51121	0	0
0.12	-3.02544	1.42377	-1.60208	0.708503	-0.528657	1.04715	-0.103422	-0.050122	-0.346782	0.412549	-0.11532	0	0	-0.130925	-0.10269	-0.201444	0.159349	-0.407044	0	0	-0.390633	0.0406929	-0.175259	0.182275	-0.420614	1.06554	0.608794	0.611243	0	0	0.137181	-0.407719	1.27253	0.475795	0.549451	0	0
0.13	-3.03734	1.42015	-1.59212	0.709251	-0.528466	1.04718	-0.109798	-0.0470045	-0.344562	0.407798	-0.115517	0	0	-0.137387	-0.104028	-0.203515	0.154794	-0.407865	0	0	-0.39091	0.0423053	-0.173169	0.180097	-0.419907	1.055	0.609861	0.61483	0	0	0.136093	-0.409089	1.28813	0.480965	0.548009	0	0
0.14	-3.05166	1.41624	-1.57981	0.709974	-0.528394	1.04721	-0.115411	-0.0437075	-0.340474	0.405711	-0.115248	0	0	-0.14433	-0.105905	-0.204545	0.149416	-0.410316	0	0	-0.391615	0.0446288	-0.170736	0.178306	-0.419009	1.04419	0.610253	0.619807	0	0	0.135162	-0.410343	1.30048	0.486336	0.548536	0	0
0.15	-3.06681	1.41317	-1.56649	0.71061	-0.528208	1.04712	-0.119919	-0.0405495	-0.338454	0.404074	-0.114962	0	0	-0.15044	-0.108309	-0.206281	0.144114	-0.4131	0	0	-0.391022	0.0473039	-0.168918	0.176337	-0.417781	1.03355	0.609896	0.625541	0	0	0.133319	-0.411204	1.30828	0.491417	0.550398	0	0
0.16	-3.08299	1.41041	-1.55197	0.711185	-0.527892	1.04696	-0.124432	-0.0373906	-0.339695	0.401199	-0.114992	0	0	-0.156669	-0.110989	-0.20775	0.138201	-0.416256	0	0	-0.389496	0.049968	-0.167378	0.173148	-0.416336	1.02089	0.60904	0.631948	0	0	0.131046	-0.412136	1.31434	0.496682	0.554901	0	0
0.17	-3.10018	1.40669	-1.53638	0.711718	-0.527543	1.04683	-0.129973	-0.0337712	-0.340626	0.398084	-0.115046	0	0	-0.164393	-0.113759	-0.208632	0.131553	-0.419825	0	0	-0.388694	0.0531054	-0.16544	0.169031	-0.415106	1.00554	0.608417	0.641098	0	0	0.129161	-0.413027	1.31925	0.502232	0.562709	0	0
0.18	-3.11811	1.40265	-1.5203	0.712263	-0.527141	1.04673	-0.135736	-0.0295448	-0.340717	0.395892	-0.114767	0	0	-0.17258	-0.116663	-0.209958	0.124966	-0.42292	0	0	-0.387701	0.0567205	-0.163241	0.164838	-0.413656	0.989986	0.607027	0.651957	0	0	0.126554	-0.41349	1.32112	0.507327	0.571712	0	0
0.19	-3.13439	1.39852	-1.50611	0.712796	-0.526714	1.04664	-0.141221	-0.0256128	-0.340626	0.394044	-0.114455	0	0	-0.180713	-0.119426	-0.212643	0.118692	-0.426114	0	0	-0.386588	0.0602143	-0.160822	0.16027	-0.412095	0.973582	0.605493	0.664387	0	0	0.123597	-0.4137	1.32053	0.512078	0.581746	0	0
0.2	3.13576	1.39426	-1.49512	0.713297	-0.526284	1.04658	-0.14654	-0.0224448	-0.341054	0.392292	-0.114367	0	0	-0.188586	-0.121763	-0.216085	0.11324	-0.429423	0	0	-0.385341	0.063298	-0.158454	0.155306	-0.409975	0.955969	0.603175	0.678363	0	0	0.120653	-0.414108	1.31807	0.517131	0.593673	0	0
0.21	3.12863	1.38945	-1.48921	0.713749	-0.525958	1.04673	-0.152805	-0.0199471	-0.341783	0.389139	-0.115511	0	0	-0.196761	-0.122956	-0.216986	0.107655	-0.435382	0	0	-0.389114	0.0645942	-0.154241	0.138692	-0.399107	0.883996	0.595512	0.796606	0	0	0.11194	-0.413288	1.27034	0.519883	0.669971	0	0
0.22	3.12437	1.38419	-1.4866	0.714195	-0.52565	1.04692	-0.158893	-0.0182692	-0.343357	0.388433	-0.115523	0	0	-0.204524	-0.123903	-0.220125	0.104708	-0.437328	0	0	-0.390112	0.0660621	-0.152911	0.134234	-0.395844	0.864313	0.59284	0.812609	0	0	0.108361	-0.414083	1.25875	0.524594	0.68915	0	0
0.23	3.12384	1.37821	-1.4877	0.714627	-0.525449	1.04723	-0.165416	-0.0173849	-0.345362	0.388132	-0.115734	0	0	-0.212566	-0.124322	-0.223829	0.102887	-0.438895	0	0	-0.392282	0.0669084	-0.151446	0.130304	-0.392546	0.845411	0.590271	0.827076	0	0	0.105315	-0.414911	1.24608	0.528938	0.708576	0	0
